<svg height="512pt" viewBox="-87 0 511 512" width="512pt" xmlns="http://www.w3.org/2000/svg"><path d="m257.1875 0h-175.753906l-43.9375 43.9375 131.8125 131.8125 131.8125-131.515625zm0 0" fill="#ff7cb9"/><path d="m301.121094 44.230469-107.671875 107.4375-24.128907 24.074219v-175.742188h87.863282zm0 0" fill="#ff5e95"/><path d="m211.519531 179.707031v-28.039062h-84.410156v28.039062c-72.808594 18.738281-126.609375 84.839844-126.609375 163.484375 0 93.230469 75.589844 168.808594 168.820312 168.808594 93.222657 0 168.800782-75.578125 168.800782-168.808594 0-78.65625-53.800782-144.742187-126.601563-163.484375zm-42.199219 268.753907c-58.132812 0-105.269531-47.128907-105.269531-105.269532 0-58.132812 47.136719-105.261718 105.269531-105.261718 58.132813 0 105.261719 47.128906 105.261719 105.261718 0 58.140625-47.128906 105.269532-105.261719 105.269532zm0 0" fill="#ffd400"/><path d="m211.519531 179.707031v-28.039062h-42.199219v86.265625c58.128907 0 105.265626 47.121094 105.265626 105.253906 0 58.140625-47.132813 105.273438-105.265626 105.273438v63.539062c93.226563 0 168.800782-75.574219 168.800782-168.8125 0-78.65625-53.804688-144.738281-126.601563-163.480469zm0 0" fill="#fdbf00"/></svg>